<svg xmlns="http://www.w3.org/2000/svg" viewBox="0 0 108.27 84.43"><title>Asset 3</title><path d="M19,72.25c-.39-1.93-2-2.44-3.76-2.61-5.73-.53-6.75,3.75-6.75,5.56,0,3.1.9,5.65,6.54,5.65,1,0,3.9-1.06,3.9-2.8H27c-.33,5.15-9,6.38-12.77,6.38C6.39,84.43-.31,83,0,75.28c.24-5.5,5.43-9.37,15.79-9.13,5.76.14,11.3,1.94,11.33,6.1Z" fill="#fff"/><path d="M100.11,72.25c-.4-1.93-2-2.44-3.75-2.61-5.73-.53-6.76,3.75-6.76,5.56,0,3.1.9,5.65,6.53,5.65,1.05,0,3.91-1.06,3.91-2.8h8.11c-.33,5.15-9,6.38-12.78,6.38-7.83,0-14.55-1.45-14.2-9.15.23-5.5,5.43-9.37,15.77-9.13,5.77.14,11.31,1.94,11.33,6.1Z" fill="#fff"/><path d="M28.58,66.52H39.09l9,12.58h.07V66.52h6.74V84H44.8L35.37,71.41h-.06V84H28.58Z" fill="#fff"/><path d="M57,66.52H69.73c6.15,0,9.75,1.71,9.75,4.3,0,1.53-1.51,3.42-4.88,4v.05c4.06.24,5.55,2.8,5.55,4.33,0,3.08-3.52,4.8-10.38,4.8H57Zm7.39,6.78h2.12c3.26,0,5-.25,5-1.61S70,69.76,67.08,69.76H64.35Zm0,7h2.12c3.94,0,5.38-.42,5.38-1.77S70,76.62,67.08,76.62H64.35Z" fill="#fff"/><path d="M76.22,6.47a11.16,11.16,0,0,0-3-4,10.93,10.93,0,0,0-12-1.18,10.56,10.56,0,0,0-5.62,9.3l.14.14,4.61,0c.3.21.79.18.87.62-1.87,1.44-5.06,2.71-4.67,5.69l4.93,31.09.12-.14L75.16,17.39C76.92,14.34,77.92,9.88,76.22,6.47Z" fill="#fff"/><path d="M46.95,48l5.55-35.6a11,11,0,0,0-1.37-7A11.54,11.54,0,0,0,45.95.92,10.8,10.8,0,0,0,31.51,14.15L45.45,45.24l1.43,2.87C46.93,48.09,47,48,46.95,48Z" fill="#fff"/><path d="M96.38,20.4a11,11,0,0,1-.62,11c-1.29,2.08-3.44,3.12-5.23,4.49L61.68,55.68h-.07l.33-.95,15.3-34.52a11,11,0,0,1,11.28-5.5A11.13,11.13,0,0,1,96.38,20.4Z" fill="#fff"/><path d="M14.42,33.56l32.1,22.11h.24L30.85,20.21a11,11,0,0,0-13.42-4.88,11.08,11.08,0,0,0-6.5,7.2A10.57,10.57,0,0,0,14.42,33.56Z" fill="#fff"/><path d="M103.44,56.31a11,11,0,0,0,1.33-10.88,11.33,11.33,0,0,0-5.64-5.55A11.05,11.05,0,0,0,89,40.55L60.36,60.49l34.21,0A10.81,10.81,0,0,0,103.44,56.31Z" fill="#fff"/><path d="M47.84,60.49,19.19,40.55a11.07,11.07,0,0,0-10.12-.67,11.22,11.22,0,0,0-5.62,5.55A10.92,10.92,0,0,0,4.78,56.31a10.81,10.81,0,0,0,8.85,4.16Z" fill="#fff"/></svg>